<svg id="Layer_1" data-name="Layer 1" xmlns="http://www.w3.org/2000/svg" viewBox="0 0 300 300"><defs><style>.cls-1{fill:#a5e3e1;}.cls-2{fill:#303351;}.cls-3{fill:none;stroke:#303351;stroke-miterlimit:10;stroke-width:12px;}</style></defs><title>icon-follow</title><path class="cls-1" d="M153,22.55H24.08V281.4l128.92-1,128.92,1V22.55ZM257.53,256.23,153,255.4l-104.53.83V46.89H257.53Z"/><path class="cls-2" d="M288,287.53l-135-1.06L18,287.53V16.47H288ZM153,274.3h.05l122.78,1V28.63H30.17V275.27Z"/><path class="cls-2" d="M263.57,262.31,153,261.44l-110.57.87V40.85H263.57ZM153,249.37h.05l98.45.77V52.92H54.5V250.14Z"/><rect class="cls-3" x="110.82" y="104.45" width="78.37" height="78.37" transform="translate(-57.63 148.13) rotate(-45)"/><line class="cls-3" x1="125.14" y1="143.63" x2="174.86" y2="143.63"/><line class="cls-3" x1="150" y1="168.49" x2="150" y2="118.76"/><line class="cls-3" x1="209" y1="211.78" x2="91" y2="211.78"/></svg>