<svg id="Layer_1" data-name="Layer 1" xmlns="http://www.w3.org/2000/svg" viewBox="0 0 300 300"><defs><style>.cls-1{fill:#a5e3e1;}.cls-2{fill:#303351;}</style></defs><title>icon-follow</title><path class="cls-1" d="M153,22.55H24.08V281.4l128.92-1,128.92,1V22.55ZM257.53,256.23,153,255.4l-104.53.83V46.89H257.53Z"/><path class="cls-2" d="M288,287.53l-135-1.06L18,287.53V16.47H288ZM153,274.3h.05l122.78,1V28.63H30.17V275.27Z"/><path class="cls-2" d="M263.57,262.31,153,261.44l-110.57.87V40.85H263.57ZM153,249.37h.05l98.45.77V52.92H54.5V250.14Z"/><path class="cls-2" d="M213.9,143.63,150,79.73l-63.9,63.9,62.16,62.16H91v12H209v-12H151.74ZM150,96.7l46.93,46.93L150,190.56l-46.93-46.93Z"/><polygon class="cls-2" points="156 168.49 156 149.63 174.87 149.63 174.87 137.63 156 137.63 156 118.76 144 118.76 144 137.63 125.14 137.63 125.14 149.63 144 149.63 144 168.49 156 168.49"/></svg>