<svg id="Layer_1" data-name="Layer 1" xmlns="http://www.w3.org/2000/svg" viewBox="0 0 300 300"><defs><style>.cls-2{fill:#303351}</style></defs><path d="M153 22.55H24.08V281.4l128.92-1 128.92 1V22.55zm104.53 233.68L153 255.4l-104.53.83V46.89h209.06z" fill="#a5e3e1"/><path class="cls-2" d="M288 287.53l-135-1.06-135 1.06V16.47h270zM153 274.3h.05l122.78 1V28.63H30.17v246.64z"/><path class="cls-2" d="M263.57 262.31L153 261.44l-110.57.87V40.85h221.14zM153 249.37h.05l98.45.77V52.92h-197v197.22z"/><path class="cls-2" d="M213.9 143.63L150 79.73l-63.9 63.9 62.16 62.16H91v12h118v-12h-57.26zM150 96.7l46.93 46.93L150 190.56l-46.93-46.93z"/><path class="cls-2" d="M156 168.49v-18.86h18.87v-12H156v-18.87h-12v18.87h-18.86v12H144v18.86h12z"/></svg>