<svg width="778" height="778" viewBox="0 0 778 778" fill="none" xmlns="http://www.w3.org/2000/svg">
<rect x="59.3301" y="57.6548" width="661.226" height="664.555" fill="#0C0D0D"/>
<path d="M389 70.9521H71.9526V707.531L389 705.072L706.048 707.531V70.9521H389ZM646.067 645.632L389 643.591L131.934 645.632V130.811H646.067V645.632Z" fill="#A5E3E1"/>
<path d="M721 722.607L389 720L57 722.607V56H721V722.607ZM389 690.071H389.123L691.071 692.53V85.9046H86.9292V692.456L389 690.071Z" fill="#0C0D0D"/>
<path d="M660.921 660.584L389 658.445L117.08 660.584V115.957H660.921V660.584ZM389 628.761H389.123L631.237 630.655V145.64H146.763V630.655L389 628.761Z" fill="#0C0D0D"/>
<path d="M538.769 368.719L381.622 211.573L224.476 368.719L377.343 521.587H236.526V551.098H526.719V521.587H385.901L538.769 368.719ZM381.622 253.306L497.035 368.719L381.622 484.132L266.209 368.719L381.622 253.306Z" fill="white"/>
<path d="M396.378 429.857V383.475H442.784V353.964H396.378V307.558H366.866V353.964H320.485V383.475H366.866V429.857H396.378Z" fill="white"/>
</svg>
